<?xml version="1.0" standalone="no"?>
<!DOCTYPE svg PUBLIC "-//W3C//DTD SVG 20010904//EN"
 "http://www.w3.org/TR/2001/REC-SVG-20010904/DTD/svg10.dtd">
<svg version="1.0" xmlns="http://www.w3.org/2000/svg"
 width="7000.000000pt" height="6999.000000pt" viewBox="0 0 7000.000000 6999.000000"
 preserveAspectRatio="xMidYMid meet">

<g transform="translate(0.000000,6999.000000) scale(0.100000,-0.100000)"
fill="#000000" stroke="none">
<path d="M0 34995 l0 -34995 35000 0 35000 0 0 34995 0 34995 -35000 0 -35000
0 0 -34995z m36305 19132 c255 -33 401 -65 550 -124 377 -148 589 -425 666
-872 37 -219 43 -455 28 -1226 -16 -798 -16 -1428 0 -1678 14 -224 32 -423 40
-436 5 -7 154 -7 496 0 678 15 1757 15 2045 0 588 -30 955 -78 1196 -156 124
-41 192 -78 276 -153 242 -213 361 -464 397 -832 11 -121 4 -2441 -9 -2763
-21 -491 -61 -721 -166 -936 -50 -102 -66 -124 -147 -206 -80 -80 -106 -99
-195 -143 -211 -105 -438 -151 -902 -183 -276 -19 -2144 -19 -2459 0 -185 12
-248 12 -303 3 -137 -24 -201 -81 -247 -221 -20 -61 -21 -89 -26 -1254 -3
-656 -8 -1440 -11 -1743 l-6 -551 -520 -7 c-287 -4 -523 -4 -527 -1 -8 9 -32
3121 -25 3315 30 888 190 1275 609 1471 103 48 231 83 410 111 130 20 176 22
655 22 283 1 850 -3 1260 -8 538 -7 838 -6 1080 3 184 6 351 14 371 17 l36 5
8 692 c4 381 10 917 14 1192 12 962 -5 1089 -155 1165 -49 25 -50 25 -264 20
-377 -9 -2001 -2 -2288 10 -1041 41 -1415 165 -1596 526 -116 232 -145 544
-127 1387 14 616 14 1322 1 1692 -11 318 -30 678 -36 684 -2 3 -131 10 -287
17 -773 35 -1981 55 -2192 35 -230 -21 -362 -64 -444 -143 -114 -109 -136
-269 -107 -793 34 -607 48 -1762 26 -2080 -36 -510 -135 -793 -354 -1010 -222
-220 -482 -306 -1016 -335 -632 -34 -1255 -20 -2050 45 -582 48 -782 25 -903
-104 -55 -59 -81 -107 -106 -203 -41 -150 -46 -232 -46 -733 0 -425 15 -1294
31 -1871 l6 -202 372 -7 c204 -3 846 -11 1426 -16 580 -4 1125 -13 1210 -19
441 -28 702 -80 905 -180 319 -156 451 -423 507 -1025 10 -109 13 -536 13
-1907 0 -971 -2 -1768 -5 -1771 -7 -7 -1091 21 -1099 28 -3 4 -9 777 -12 1718
-5 1529 -7 1718 -22 1772 -24 90 -44 131 -84 176 -91 100 -210 124 -573 115
-140 -3 -370 -12 -510 -20 -505 -29 -904 -38 -1480 -33 -450 3 -598 8 -680 20
-453 67 -735 249 -910 589 -180 347 -234 822 -210 1822 6 264 15 720 20 1011
11 642 26 806 97 1080 72 277 206 501 378 632 282 215 683 276 1450 223 949
-66 1253 -78 1622 -62 147 7 336 19 418 27 174 18 477 63 487 73 3 4 12 195
19 426 14 470 8 1105 -16 1716 -24 637 -18 944 26 1198 110 645 500 903 1449
962 91 5 307 11 480 11 173 1 430 5 570 9 435 12 1326 4 1465 -13z m-17580
-15087 c201 -29 384 -106 496 -209 188 -171 246 -402 139 -549 -78 -108 -261
-116 -380 -15 -16 13 -62 70 -103 126 -86 118 -119 148 -203 188 -156 75 -411
46 -510 -56 -100 -103 -52 -224 118 -294 43 -17 159 -52 258 -77 586 -146 798
-261 913 -496 104 -210 104 -443 0 -658 -39 -82 -58 -107 -137 -185 -101 -100
-205 -162 -349 -209 -269 -88 -653 -85 -922 7 -236 81 -411 236 -498 443 -47
111 -56 228 -24 303 46 107 126 161 241 161 128 0 204 -55 276 -200 76 -152
149 -239 237 -284 45 -22 163 -46 231 -46 71 0 177 22 239 50 165 73 214 257
102 384 -67 76 -188 125 -489 200 -206 52 -290 80 -415 140 -254 122 -380 284
-406 525 -14 130 4 244 57 351 48 98 159 210 264 268 117 65 297 118 460 135
76 8 339 6 405 -3z m2555 -5 c360 -51 632 -218 797 -491 134 -221 192 -484
180 -819 -18 -505 -222 -866 -597 -1055 -287 -145 -747 -169 -1090 -58 -447
145 -713 537 -738 1088 -18 393 59 690 240 931 171 227 438 371 763 412 83 11
345 6 445 -8z m2677 4 c363 -48 641 -233 767 -511 42 -92 57 -152 57 -234 1
-157 -118 -279 -271 -278 -124 2 -189 52 -265 204 -121 241 -267 340 -503 340
-177 0 -320 -77 -413 -221 -101 -158 -149 -450 -120 -732 34 -322 142 -483
381 -563 67 -23 221 -25 295 -5 82 23 158 66 206 118 63 67 89 111 142 236 55
131 91 178 163 213 48 23 63 26 127 22 82 -6 136 -29 183 -80 62 -67 76 -106
75 -208 -3 -301 -281 -641 -611 -746 -196 -63 -593 -67 -800 -8 -198 56 -343
143 -472 283 -160 175 -265 400 -303 651 -17 111 -20 378 -5 498 69 547 419
931 924 1016 99 17 337 20 443 5z m1683 -8 c74 -28 129 -77 159 -141 l26 -55
5 -965 c3 -531 2 -1000 -2 -1043 -9 -98 -33 -151 -88 -201 -79 -71 -183 -99
-282 -76 -101 23 -170 78 -209 165 -32 71 -35 208 -29 1240 6 964 2 911 74
992 83 94 227 129 346 84z m6660 -4 c161 -57 219 -124 318 -368 78 -193 590
-1511 634 -1634 50 -141 57 -210 28 -287 -55 -148 -220 -228 -374 -184 -70 20
-130 73 -171 148 -16 28 -52 120 -81 202 l-52 151 -458 0 -459 0 -55 -160
c-101 -290 -157 -350 -330 -350 -88 1 -146 25 -209 87 -52 52 -74 99 -79 172
-8 105 -29 44 470 1351 198 518 248 636 299 715 97 150 334 222 519 157z
m6375 -6 c53 -25 94 -60 133 -112 6 -8 18 -42 27 -75 13 -51 15 -159 15 -765
0 -698 -5 -838 -35 -951 -69 -266 -250 -455 -508 -533 -72 -22 -237 -45 -325
-45 -98 0 -253 17 -327 37 -86 23 -212 83 -271 131 -168 133 -284 406 -284
666 0 135 43 215 143 269 36 19 58 22 143 22 93 0 103 -2 143 -28 74 -49 108
-122 172 -365 27 -103 68 -166 133 -207 45 -27 57 -30 130 -30 122 1 198 50
237 154 31 84 37 234 38 938 1 361 6 664 11 693 27 141 139 228 295 229 57 1
81 -4 130 -28z m1125 10 c74 -28 129 -77 159 -141 l26 -55 6 -700 c7 -756 8
-771 63 -891 34 -74 108 -146 178 -172 172 -64 372 -51 495 34 83 57 131 144
152 275 6 37 11 322 12 694 0 346 5 661 10 700 22 174 135 275 308 275 118 0
224 -68 273 -175 l23 -50 3 -660 c4 -696 -1 -826 -40 -985 -39 -162 -110 -284
-235 -400 -145 -135 -313 -204 -558 -229 -282 -28 -575 0 -768 75 -242 93
-401 265 -471 508 -53 181 -57 261 -54 1007 4 759 1 726 72 806 83 94 227 129
346 84z m2514 3 c28 -10 63 -33 86 -56 73 -76 76 -84 390 -1048 94 -289 184
-563 199 -610 l28 -85 56 175 c31 96 140 438 242 760 102 322 197 616 211 653
36 95 81 156 138 192 43 26 61 30 132 34 71 3 90 0 136 -22 140 -64 203 -190
168 -339 -12 -49 -557 -1558 -637 -1763 -77 -195 -139 -277 -253 -333 -116
-57 -234 -64 -358 -21 -125 43 -187 101 -257 239 -40 79 -72 164 -387 1030
-271 746 -301 832 -305 902 -5 73 -4 82 26 142 53 107 147 165 272 166 36 0
87 -7 113 -16z m5078 -17 c93 -54 108 -75 639 -902 149 -231 294 -456 322
-500 l52 -80 5 645 c5 640 5 645 28 701 59 147 239 212 387 140 70 -35 83 -45
111 -86 49 -72 49 -64 49 -1105 l0 -975 -23 -73 c-38 -121 -141 -208 -278
-233 -73 -14 -165 -5 -219 21 -96 47 -145 113 -581 790 -115 178 -241 374
-281 435 -40 60 -89 138 -110 172 -21 35 -41 63 -45 63 -4 0 -9 -287 -11 -637
-3 -699 -2 -680 -64 -753 -99 -115 -299 -128 -414 -26 -36 31 -56 63 -76 122
-15 44 -17 134 -19 964 -2 896 1 1032 25 1117 23 83 105 166 207 209 52 22 71
24 154 22 83 -3 102 -7 142 -31z m2548 14 c73 -28 125 -74 157 -139 l28 -57 5
-960 c3 -528 2 -998 -3 -1044 -9 -101 -32 -155 -89 -206 -77 -70 -182 -98
-280 -75 -101 23 -169 77 -210 165 l-23 50 0 1020 c0 855 2 1028 14 1070 19
67 106 154 177 177 67 23 162 22 224 -1z m1120 0 c72 -28 125 -74 156 -137 35
-72 35 -66 37 -1029 l2 -780 530 -5 c292 -3 539 -9 550 -14 118 -55 180 -168
154 -284 -13 -61 -64 -135 -109 -160 -68 -39 -131 -42 -784 -42 -635 0 -725 4
-789 35 -52 24 -115 89 -140 143 l-22 47 -3 984 c-3 1080 -3 1066 57 1141 33
41 111 96 155 109 55 16 152 12 206 -8z m-22916 -32 c194 -49 220 -331 39
-420 l-48 -24 -580 -5 -580 -5 0 -230 0 -230 510 -2 c281 -2 529 -5 551 -8
141 -19 221 -189 153 -322 -35 -66 -87 -100 -174 -113 -38 -5 -289 -10 -557
-10 l-487 0 2 -282 2 -283 595 -5 595 -5 55 -27 c58 -29 92 -69 116 -135 35
-98 -9 -223 -96 -272 -71 -40 -132 -42 -905 -39 l-740 3 -55 26 c-68 32 -126
88 -154 148 -21 45 -21 57 -26 876 -6 1003 -3 1143 28 1202 46 88 111 141 199
162 57 13 1504 13 1557 0z m1936 -13 c185 -43 330 -124 461 -256 150 -152 239
-330 290 -576 26 -129 37 -436 20 -584 -27 -231 -96 -426 -209 -585 -155 -219
-330 -326 -625 -382 -80 -15 -154 -18 -562 -18 -542 0 -552 1 -630 80 -63 62
-84 110 -95 217 -12 113 -13 1681 -1 1823 10 118 28 162 94 222 53 49 75 62
130 73 23 5 269 7 547 6 440 -2 515 -5 580 -20z m4960 0 c185 -43 330 -124
461 -256 150 -152 239 -330 290 -576 26 -129 37 -436 20 -584 -27 -231 -96
-426 -209 -585 -155 -219 -330 -326 -625 -382 -80 -15 -154 -18 -562 -18 -542
0 -552 1 -630 80 -63 62 -84 110 -95 217 -12 113 -13 1681 -1 1823 10 118 28
162 94 222 53 49 75 62 130 73 23 5 269 7 547 6 440 -2 515 -5 580 -20z
m11234 13 c135 -34 202 -195 135 -324 -33 -65 -87 -102 -164 -115 -34 -6 -294
-10 -597 -10 l-538 0 -5 -23 c-4 -13 -5 -118 -3 -233 l3 -209 545 -5 545 -5
46 -27 c96 -56 131 -190 77 -294 -34 -65 -86 -101 -168 -114 -38 -6 -271 -10
-557 -10 l-493 0 3 -282 2 -283 595 -5 c327 -4 606 -10 620 -15 113 -38 179
-164 150 -286 -16 -67 -86 -141 -151 -161 -35 -10 -206 -13 -819 -13 l-775 0
-55 26 c-60 28 -121 83 -145 128 -33 65 -35 121 -35 1063 0 1045 -3 1002 65
1091 19 25 48 55 64 66 68 49 86 50 874 50 501 1 752 -2 781 -10z m-29284
-1214 l0 -395 -2225 0 -2225 0 0 395 0 395 2225 0 2225 0 0 -395z m40430 0 l0
-395 -2225 0 -2225 0 0 395 0 395 2225 0 2225 0 0 -395z m-44336 -2780 c731
-65 1320 -285 1791 -672 444 -364 752 -901 805 -1405 19 -180 -2 -309 -75
-463 -84 -176 -203 -298 -370 -381 -109 -54 -197 -74 -332 -74 -382 0 -591
165 -797 630 -161 365 -419 652 -721 803 -275 137 -625 185 -972 131 -768
-118 -1216 -760 -1303 -1868 -13 -165 -13 -601 0 -776 40 -531 145 -896 345
-1195 98 -147 218 -266 364 -360 500 -323 1243 -322 1701 3 241 170 405 410
579 847 114 285 184 399 310 508 73 64 215 132 313 152 420 83 827 -157 937
-552 73 -265 -2 -693 -187 -1076 -189 -391 -448 -701 -817 -979 -385 -290
-794 -443 -1370 -514 -179 -22 -737 -30 -943 -15 -878 68 -1466 307 -1985 810
-506 490 -811 1045 -971 1770 -107 479 -133 1076 -70 1621 57 497 185 941 389
1345 299 594 734 1042 1300 1341 377 200 858 334 1330 373 172 14 569 12 749
-4z m4906 4 c192 -31 356 -115 501 -259 110 -109 155 -181 193 -311 49 -170
49 -178 55 -1199 l6 -965 1297 -3 1297 -2 4 937 c3 654 8 962 16 1018 34 231
91 369 198 485 125 135 284 235 448 282 68 19 103 23 230 23 126 0 162 -4 229
-23 173 -50 329 -144 445 -267 109 -118 165 -245 198 -455 17 -109 18 -258 18
-2885 0 -2945 1 -2860 -47 -3044 -57 -220 -213 -396 -456 -515 -140 -68 -250
-90 -415 -83 -196 8 -340 56 -502 167 -150 104 -248 234 -299 396 -59 190 -60
207 -66 1414 l-5 1105 -1295 0 -1295 0 -6 -1125 c-6 -1170 -6 -1177 -50 -1348
-73 -286 -350 -533 -668 -598 -113 -22 -304 -15 -411 16 -174 50 -320 138
-439 266 -115 124 -171 263 -203 509 -19 148 -19 5523 0 5670 31 234 88 376
204 500 145 155 334 264 512 294 74 12 230 13 306 0z m7709 -4 c208 -40 414
-161 535 -314 124 -159 169 -327 186 -706 13 -266 12 -4958 0 -5225 -19 -409
-69 -563 -239 -743 -133 -141 -314 -237 -505 -268 -114 -18 -291 -7 -399 25
-231 69 -431 222 -525 404 -68 132 -95 256 -112 517 -14 222 -14 5152 1 5375
22 361 88 535 259 693 132 123 289 207 450 241 88 19 250 19 349 1z m5695 4
c1036 -78 1840 -493 2306 -1191 190 -285 308 -597 340 -897 38 -363 -141 -694
-458 -843 -120 -57 -199 -71 -362 -65 -108 4 -151 10 -215 31 -111 35 -196 88
-279 172 -89 89 -158 200 -245 391 -38 81 -92 189 -121 238 -191 324 -458 553
-771 663 -319 112 -729 117 -1050 12 -402 -132 -691 -427 -878 -898 -100 -251
-165 -562 -192 -921 -15 -207 -6 -770 15 -951 72 -603 248 -1006 553 -1269
284 -245 714 -376 1125 -343 381 31 641 143 873 376 169 169 296 385 429 724
96 244 157 350 262 456 139 139 312 206 531 206 375 0 696 -256 774 -615 19
-89 14 -307 -11 -449 -95 -547 -418 -1080 -892 -1469 -229 -188 -530 -362
-773 -447 -210 -73 -493 -133 -765 -162 -199 -21 -863 -18 -1065 5 -785 90
-1344 338 -1824 810 -581 571 -911 1261 -1021 2135 -76 602 -42 1246 94 1797
241 974 796 1716 1596 2133 412 215 846 332 1385 375 101 9 513 6 639 -4z
m4943 -5 c316 -65 567 -273 652 -538 69 -216 65 -36 71 -2726 l5 -2425 1455
-6 c1499 -5 1506 -5 1655 -46 137 -37 257 -128 354 -268 104 -149 136 -259
128 -435 -9 -196 -76 -348 -217 -491 -95 -97 -163 -136 -292 -168 -160 -41
-245 -42 -2193 -39 -1762 3 -1875 4 -1965 22 -178 34 -290 92 -433 223 -134
123 -197 220 -236 363 -47 175 -46 92 -46 2965 0 2553 1 2717 18 2823 36 225
88 341 212 470 135 142 301 237 480 275 94 20 258 21 352 1z m8375 -3 c349
-60 664 -247 827 -491 137 -205 241 -445 686 -1590 97 -250 192 -493 210 -540
18 -47 144 -368 278 -715 135 -346 265 -682 290 -745 259 -661 582 -1501 650
-1690 137 -382 160 -476 161 -660 0 -115 -3 -132 -32 -219 -97 -282 -326 -501
-609 -583 -106 -31 -369 -33 -478 -4 -153 41 -280 121 -377 240 -142 172 -252
422 -468 1059 l-58 172 -1326 3 c-1056 2 -1327 0 -1330 -10 -53 -174 -222
-679 -263 -783 -166 -423 -327 -606 -598 -680 -91 -25 -332 -31 -419 -11 -310
73 -554 297 -648 596 -20 65 -23 95 -22 215 2 266 20 325 406 1335 121 316
237 620 258 675 21 55 109 285 195 510 193 502 383 1000 522 1365 257 674 490
1276 569 1467 245 595 378 770 726 953 254 133 559 180 850 131z m3833 -14
c225 -74 394 -244 665 -672 124 -197 281 -459 825 -1377 198 -335 363 -607
367 -605 6 2 135 217 701 1172 239 405 440 739 511 852 254 404 414 558 656
635 66 20 95 23 240 23 142 0 176 -3 243 -23 223 -64 392 -205 492 -407 104
-211 98 -428 -18 -692 -89 -204 -201 -387 -797 -1308 -98 -152 -466 -723 -902
-1400 l-238 -369 0 -976 c0 -1005 -6 -1229 -40 -1400 -47 -247 -159 -406 -391
-560 -164 -108 -303 -146 -508 -137 -144 6 -254 33 -374 93 -217 110 -351 255
-412 447 -65 206 -75 401 -75 1599 l0 938 -87 132 c-47 73 -143 221 -213 328
-293 451 -546 840 -595 915 -660 1009 -867 1339 -991 1584 -144 283 -175 496
-105 721 73 233 304 434 569 494 37 9 76 18 87 20 11 3 85 3 165 2 124 -3 157
-7 225 -29z m9145 9 c1032 -115 1797 -508 2322 -1191 141 -185 326 -516 415
-745 198 -508 286 -1016 286 -1660 0 -352 -14 -545 -63 -846 -185 -1122 -748
-1961 -1621 -2413 -385 -200 -789 -317 -1299 -377 -210 -25 -730 -30 -960 -10
-927 81 -1640 388 -2177 937 -602 616 -917 1477 -949 2592 -24 832 162 1628
520 2227 538 898 1412 1402 2601 1499 169 14 754 6 925 -13z m-26780 -8690
c616 -50 1136 -136 1591 -266 352 -100 620 -201 754 -285 39 -24 122 -85 185
-135 63 -50 148 -113 188 -141 41 -27 67 -49 60 -49 -88 0 -671 65 -1388 155
-951 119 -1209 140 -1765 140 -417 0 -581 -8 -920 -46 -291 -32 -777 -107
-792 -123 -15 -14 81 -145 237 -321 304 -345 615 -809 840 -1250 294 -577 471
-1166 564 -1875 47 -356 72 -691 106 -1405 23 -492 42 -839 45 -843 2 -2 63
13 136 32 1269 337 2418 87 3561 -772 218 -164 454 -365 665 -565 l42 -40 58
44 c32 24 139 109 238 188 99 80 272 219 385 310 529 425 793 595 1113 715
200 75 402 122 662 153 186 22 857 25 1145 5 205 -14 728 -59 803 -69 l48 -6
-8 69 c-13 117 -9 1110 5 1309 41 566 109 1004 227 1460 176 687 473 1359 844
1910 99 148 149 214 403 532 217 273 314 401 307 407 -9 8 -344 87 -469 110
-771 144 -1540 139 -2613 -20 -1016 -149 -1190 -171 -1471 -181 -163 -6 -168
-6 -163 13 3 10 9 46 12 79 11 104 31 132 131 183 102 52 433 172 679 247
1037 315 2529 425 3640 269 590 -83 1043 -234 1217 -405 95 -93 113 -136 113
-269 -1 -131 -10 -160 -151 -453 -91 -189 -164 -370 -164 -406 0 -7 29 -11 83
-11 277 0 715 -81 1063 -196 142 -47 190 -66 352 -136 106 -46 104 -42 77
-184 -39 -205 -115 -363 -359 -749 -253 -401 -307 -501 -431 -785 -400 -922
-739 -2079 -909 -3110 -43 -260 -59 -400 -86 -760 -56 -755 -111 -1053 -235
-1275 -57 -103 -78 -122 -158 -147 -61 -20 -93 -23 -212 -22 -263 2 -463 66
-1104 354 -451 203 -586 250 -890 314 -319 68 -520 84 -1161 96 -322 6 -547
15 -620 24 -166 20 -300 47 -300 58 0 19 67 102 132 164 146 139 298 211 627
293 274 69 406 85 706 85 420 0 647 -40 1325 -234 440 -126 599 -161 792 -176
l96 -7 6 54 c3 30 13 149 21 264 132 1731 522 3183 1140 4240 213 365 403 625
665 910 95 104 229 274 255 325 l16 30 -43 19 c-89 38 -201 71 -379 111 -248
56 -402 101 -539 160 -63 27 -118 46 -122 42 -11 -11 -242 -555 -335 -792
-156 -393 -273 -777 -362 -1183 -51 -232 -101 -516 -201 -1147 -231 -1449
-333 -2082 -346 -2145 -8 -38 -32 -107 -54 -152 -108 -227 -268 -281 -558
-186 -40 13 -200 72 -355 132 -562 218 -818 278 -1225 288 -264 7 -408 -5
-637 -52 -343 -70 -673 -201 -1575 -622 -878 -411 -983 -453 -1130 -453 -193
0 -368 70 -901 360 -716 391 -1211 584 -1759 689 -701 133 -1280 71 -1945
-209 -434 -182 -486 -200 -595 -200 -84 0 -151 31 -207 94 -86 98 -81 75 -234
976 -77 454 -160 942 -185 1085 -24 143 -76 449 -115 680 -83 494 -132 751
-200 1045 -147 636 -327 1177 -545 1629 -42 89 -82 161 -88 161 -6 0 -89 -22
-186 -49 -96 -28 -290 -82 -430 -120 -274 -75 -486 -143 -502 -159 -14 -14 80
-132 326 -416 256 -294 358 -422 481 -606 382 -574 660 -1232 865 -2053 114
-452 196 -899 340 -1852 76 -499 146 -935 152 -940 2 -2 109 27 238 66 1202
358 1948 463 2534 358 286 -51 523 -166 694 -337 76 -76 160 -187 150 -197
-22 -22 -523 -45 -985 -45 -564 0 -811 -27 -1218 -135 -247 -65 -369 -110
-806 -303 -446 -196 -650 -270 -879 -319 -89 -19 -387 -26 -441 -11 -20 6 -33
24 -57 76 -101 219 -157 490 -262 1282 -127 950 -213 1445 -355 2025 -168 685
-426 1422 -695 1983 -73 151 -100 201 -295 537 -296 510 -422 752 -464 889
-12 37 -21 72 -21 76 0 5 23 33 50 64 243 265 746 416 1390 416 115 0 210 2
210 5 0 14 -86 174 -150 280 -94 156 -144 255 -169 338 -30 99 -46 264 -35
372 l9 89 85 58 c100 68 306 172 440 221 404 150 869 232 1525 271 152 9 923
-4 1105 -18z m-4255 -3583 c-10 -71 -58 -206 -96 -269 -48 -78 -173 -194 -317
-294 l-123 -85 6 -40 c14 -91 115 -275 400 -730 237 -377 345 -560 504 -847
176 -319 402 -822 539 -1198 285 -783 474 -1723 507 -2530 3 -80 8 -160 11
-177 l5 -33 87 44 c114 58 284 156 512 298 379 234 574 338 817 432 321 125
565 179 891 195 693 35 1266 -143 1460 -453 44 -70 75 -143 64 -150 -5 -3 -71
-13 -148 -23 -121 -16 -218 -18 -739 -18 -529 0 -613 -2 -710 -18 -235 -39
-465 -100 -723 -193 -180 -65 -324 -133 -672 -313 -614 -320 -822 -411 -1038
-456 -77 -16 -186 -20 -243 -8 -54 11 -112 78 -173 205 -103 210 -185 502
-301 1069 -76 370 -102 478 -190 784 -212 733 -515 1488 -955 2380 -129 262
-220 431 -335 620 -296 489 -370 685 -382 1005 l-5 155 198 142 c365 260 515
352 714 437 135 58 304 103 428 115 10 1 12 -10 7 -46z m16627 21 c308 -58
738 -303 1191 -678 78 -66 79 -67 43 -207 -53 -210 -159 -450 -494 -1124 -632
-1269 -898 -1888 -1158 -2700 -130 -402 -188 -637 -254 -1025 -28 -162 -62
-349 -76 -415 -29 -136 -101 -361 -141 -438 -64 -127 -158 -250 -225 -294 -36
-24 -44 -25 -131 -21 -163 9 -332 75 -920 360 -875 423 -1292 581 -1742 658
-250 43 -402 44 -955 9 -96 -6 -222 -8 -280 -5 -103 7 -262 25 -268 31 -7 7
59 124 102 182 169 225 453 365 836 413 110 13 436 13 576 -1 564 -55 1243
-281 1639 -544 61 -40 157 -107 215 -150 127 -93 245 -165 325 -198 60 -24
164 -53 169 -46 1 2 8 114 14 249 65 1345 419 2546 1138 3860 143 262 224 395
437 720 294 448 424 676 396 692 -8 5 -65 37 -127 72 -202 115 -307 216 -382
371 -39 81 -70 182 -70 229 0 29 -9 29 142 0z"/>
<path d="M20920 38553 c-209 -35 -370 -199 -430 -438 -63 -250 -45 -570 44
-756 119 -252 381 -377 649 -309 216 54 363 208 417 439 48 198 47 439 0 628
-58 229 -200 380 -402 428 -58 14 -217 18 -278 8z"/>
<path d="M32136 38400 c-3 -8 -71 -210 -150 -447 l-144 -433 299 0 c176 0 299
4 299 9 0 7 -260 782 -292 871 -5 13 -6 13 -12 0z"/>
<path d="M29340 37795 l0 -737 243 5 c316 6 388 25 488 128 125 128 185 406
159 735 -28 345 -129 512 -349 577 -55 16 -107 20 -303 24 l-238 5 0 -737z"/>
<path d="M34300 37795 l0 -737 243 5 c316 6 388 25 488 128 125 128 185 406
159 735 -28 345 -129 512 -349 577 -55 16 -107 20 -303 24 l-238 5 0 -737z"/>
<path d="M44417 33062 c-36 -111 -291 -880 -653 -1973 -90 -272 -164 -498
-164 -502 0 -4 392 -7 870 -7 479 0 870 2 870 4 0 2 -88 264 -196 582 -107
319 -253 750 -324 959 -70 209 -178 529 -240 710 -61 182 -114 333 -118 337
-4 4 -24 -46 -45 -110z"/>
<path d="M57002 33589 c-823 -68 -1340 -613 -1491 -1574 -64 -412 -52 -1007
29 -1407 119 -583 447 -1055 888 -1277 384 -193 891 -222 1316 -74 480 167
846 547 1007 1047 139 429 181 1172 98 1721 -74 485 -251 878 -514 1140 -257
256 -578 393 -995 425 -150 11 -189 11 -338 -1z"/>
</g>
</svg>
